<svg id="visual" viewBox="0 0 900 600" width="900" height="600" xmlns="http://www.w3.org/2000/svg" xmlns:xlink="http://www.w3.org/1999/xlink" version="1.1"><g stroke-width="1" stroke-linejoin="bevel"><path d="M432 283L536 309L531 224Z" fill="#d7d7d7" stroke="#d7d7d7"></path><path d="M603 399L594 327L536 309Z" fill="#d9d9d9" stroke="#d9d9d9"></path><path d="M536 309L634 236L531 224Z" fill="#dadada" stroke="#dadada"></path><path d="M432 283L484 389L536 309Z" fill="#d6d6d6" stroke="#d6d6d6"></path><path d="M531 224L379 181L432 283Z" fill="#d8d8d8" stroke="#d8d8d8"></path><path d="M432 283L418 413L484 389Z" fill="#d5d5d5" stroke="#d5d5d5"></path><path d="M594 327L634 236L536 309Z" fill="#dcdcdc" stroke="#dcdcdc"></path><path d="M531 224L461 123L379 181Z" fill="#d7d7d7" stroke="#d7d7d7"></path><path d="M629 120L461 123L531 224Z" fill="#d7d7d7" stroke="#d7d7d7"></path><path d="M268 374L418 413L432 283Z" fill="#d9d9d9" stroke="#d9d9d9"></path><path d="M461 123L425 120L379 181Z" fill="#dbdbdb" stroke="#dbdbdb"></path><path d="M484 389L603 399L536 309Z" fill="#d5d5d5" stroke="#d5d5d5"></path><path d="M594 327L675 315L634 236Z" fill="#dadada" stroke="#dadada"></path><path d="M631 464L603 399L531 522Z" fill="#dcdcdc" stroke="#dcdcdc"></path><path d="M287 90L308 221L379 181Z" fill="#d7d7d7" stroke="#d7d7d7"></path><path d="M379 181L308 221L432 283Z" fill="#dbdbdb" stroke="#dbdbdb"></path><path d="M662 406L675 315L594 327Z" fill="#d8d8d8" stroke="#d8d8d8"></path><path d="M308 221L298 266L432 283Z" fill="#d5d5d5" stroke="#d5d5d5"></path><path d="M705 239L629 120L634 236Z" fill="#d5d5d5" stroke="#d5d5d5"></path><path d="M634 236L629 120L531 224Z" fill="#dbdbdb" stroke="#dbdbdb"></path><path d="M461 123L422 0L425 120Z" fill="#d6d6d6" stroke="#d6d6d6"></path><path d="M675 315L705 239L634 236Z" fill="#d9d9d9" stroke="#d9d9d9"></path><path d="M631 464L662 406L603 399Z" fill="#dadada" stroke="#dadada"></path><path d="M603 399L662 406L594 327Z" fill="#d8d8d8" stroke="#d8d8d8"></path><path d="M797 339L763 227L705 239Z" fill="#d9d9d9" stroke="#d9d9d9"></path><path d="M531 522L603 399L484 389Z" fill="#d8d8d8" stroke="#d8d8d8"></path><path d="M162 262L268 374L298 266Z" fill="#dbdbdb" stroke="#dbdbdb"></path><path d="M298 266L268 374L432 283Z" fill="#d8d8d8" stroke="#d8d8d8"></path><path d="M416 539L531 522L418 413Z" fill="#d5d5d5" stroke="#d5d5d5"></path><path d="M418 413L531 522L484 389Z" fill="#dadada" stroke="#dadada"></path><path d="M607 0L481 0L461 123Z" fill="#d7d7d7" stroke="#d7d7d7"></path><path d="M425 120L287 90L379 181Z" fill="#dadada" stroke="#dadada"></path><path d="M315 0L287 90L425 120Z" fill="#d8d8d8" stroke="#d8d8d8"></path><path d="M308 221L218 162L298 266Z" fill="#dbdbdb" stroke="#dbdbdb"></path><path d="M705 239L712 105L629 120Z" fill="#d7d7d7" stroke="#d7d7d7"></path><path d="M629 120L607 0L461 123Z" fill="#d5d5d5" stroke="#d5d5d5"></path><path d="M797 339L705 239L675 315Z" fill="#d7d7d7" stroke="#d7d7d7"></path><path d="M705 239L763 227L712 105Z" fill="#d6d6d6" stroke="#d6d6d6"></path><path d="M797 339L675 315L662 406Z" fill="#dbdbdb" stroke="#dbdbdb"></path><path d="M481 0L422 0L461 123Z" fill="#d9d9d9" stroke="#d9d9d9"></path><path d="M261 502L416 539L418 413Z" fill="#d8d8d8" stroke="#d8d8d8"></path><path d="M287 90L218 162L308 221Z" fill="#d5d5d5" stroke="#d5d5d5"></path><path d="M688 0L607 0L629 120Z" fill="#dedede" stroke="#dedede"></path><path d="M796 415L797 339L662 406Z" fill="#d6d6d6" stroke="#d6d6d6"></path><path d="M422 0L315 0L425 120Z" fill="#d7d7d7" stroke="#d7d7d7"></path><path d="M287 90L209 90L218 162Z" fill="#d5d5d5" stroke="#d5d5d5"></path><path d="M624 600L728 492L631 464Z" fill="#d6d6d6" stroke="#d6d6d6"></path><path d="M631 464L728 492L662 406Z" fill="#dadada" stroke="#dadada"></path><path d="M268 374L261 502L418 413Z" fill="#d8d8d8" stroke="#d8d8d8"></path><path d="M220 463L261 502L268 374Z" fill="#d9d9d9" stroke="#d9d9d9"></path><path d="M218 162L162 262L298 266Z" fill="#d7d7d7" stroke="#d7d7d7"></path><path d="M416 539L469 600L531 522Z" fill="#dddddd" stroke="#dddddd"></path><path d="M531 522L624 600L631 464Z" fill="#d9d9d9" stroke="#d9d9d9"></path><path d="M402 600L469 600L416 539Z" fill="#d6d6d6" stroke="#d6d6d6"></path><path d="M170 426L220 463L268 374Z" fill="#dddddd" stroke="#dddddd"></path><path d="M817 0L688 0L712 105Z" fill="#d7d7d7" stroke="#d7d7d7"></path><path d="M712 105L688 0L629 120Z" fill="#d9d9d9" stroke="#d9d9d9"></path><path d="M218 162L128 166L162 262Z" fill="#d7d7d7" stroke="#d7d7d7"></path><path d="M315 0L209 90L287 90Z" fill="#dcdcdc" stroke="#dcdcdc"></path><path d="M728 492L796 415L662 406Z" fill="#d8d8d8" stroke="#d8d8d8"></path><path d="M322 600L402 600L416 539Z" fill="#d7d7d7" stroke="#d7d7d7"></path><path d="M469 600L624 600L531 522Z" fill="#d9d9d9" stroke="#d9d9d9"></path><path d="M133 305L170 426L268 374Z" fill="#d9d9d9" stroke="#d9d9d9"></path><path d="M197 600L322 600L261 502Z" fill="#d8d8d8" stroke="#d8d8d8"></path><path d="M162 262L133 305L268 374Z" fill="#dadada" stroke="#dadada"></path><path d="M0 211L133 305L162 262Z" fill="#d6d6d6" stroke="#d6d6d6"></path><path d="M197 600L261 502L220 463Z" fill="#d9d9d9" stroke="#d9d9d9"></path><path d="M261 502L322 600L416 539Z" fill="#d9d9d9" stroke="#d9d9d9"></path><path d="M209 90L128 166L218 162Z" fill="#d9d9d9" stroke="#d9d9d9"></path><path d="M763 227L831 105L712 105Z" fill="#dcdcdc" stroke="#dcdcdc"></path><path d="M900 183L831 105L763 227Z" fill="#d8d8d8" stroke="#d8d8d8"></path><path d="M900 303L763 227L797 339Z" fill="#d7d7d7" stroke="#d7d7d7"></path><path d="M728 492L774 537L796 415Z" fill="#dcdcdc" stroke="#dcdcdc"></path><path d="M705 600L774 537L728 492Z" fill="#dadada" stroke="#dadada"></path><path d="M133 305L126 418L170 426Z" fill="#d9d9d9" stroke="#d9d9d9"></path><path d="M115 522L197 600L220 463Z" fill="#dbdbdb" stroke="#dbdbdb"></path><path d="M0 411L126 418L133 305Z" fill="#d6d6d6" stroke="#d6d6d6"></path><path d="M624 600L705 600L728 492Z" fill="#d6d6d6" stroke="#d6d6d6"></path><path d="M209 90L113 128L128 166Z" fill="#dcdcdc" stroke="#dcdcdc"></path><path d="M0 211L0 284L133 305Z" fill="#d6d6d6" stroke="#d6d6d6"></path><path d="M165 0L113 128L209 90Z" fill="#dcdcdc" stroke="#dcdcdc"></path><path d="M900 368L797 339L796 415Z" fill="#d5d5d5" stroke="#d5d5d5"></path><path d="M900 368L900 303L797 339Z" fill="#dedede" stroke="#dedede"></path><path d="M900 303L900 183L763 227Z" fill="#d5d5d5" stroke="#d5d5d5"></path><path d="M900 461L900 368L796 415Z" fill="#dadada" stroke="#dadada"></path><path d="M315 0L165 0L209 90Z" fill="#dedede" stroke="#dedede"></path><path d="M900 0L817 0L831 105Z" fill="#d5d5d5" stroke="#d5d5d5"></path><path d="M831 105L817 0L712 105Z" fill="#dddddd" stroke="#dddddd"></path><path d="M900 183L900 107L831 105Z" fill="#dadada" stroke="#dadada"></path><path d="M705 600L781 600L774 537Z" fill="#dddddd" stroke="#dddddd"></path><path d="M774 537L900 461L796 415Z" fill="#d9d9d9" stroke="#d9d9d9"></path><path d="M115 522L220 463L170 426Z" fill="#dcdcdc" stroke="#dcdcdc"></path><path d="M900 600L900 461L774 537Z" fill="#d9d9d9" stroke="#d9d9d9"></path><path d="M0 411L115 522L126 418Z" fill="#d5d5d5" stroke="#d5d5d5"></path><path d="M126 418L115 522L170 426Z" fill="#dbdbdb" stroke="#dbdbdb"></path><path d="M165 0L86 0L113 128Z" fill="#d8d8d8" stroke="#d8d8d8"></path><path d="M0 211L162 262L128 166Z" fill="#d5d5d5" stroke="#d5d5d5"></path><path d="M900 107L900 0L831 105Z" fill="#d5d5d5" stroke="#d5d5d5"></path><path d="M0 211L128 166L113 128Z" fill="#dddddd" stroke="#dddddd"></path><path d="M0 62L0 211L113 128Z" fill="#d7d7d7" stroke="#d7d7d7"></path><path d="M115 522L110 600L197 600Z" fill="#dedede" stroke="#dedede"></path><path d="M0 535L110 600L115 522Z" fill="#dadada" stroke="#dadada"></path><path d="M0 284L0 411L133 305Z" fill="#dcdcdc" stroke="#dcdcdc"></path><path d="M781 600L900 600L774 537Z" fill="#dadada" stroke="#dadada"></path><path d="M86 0L0 62L113 128Z" fill="#dadada" stroke="#dadada"></path><path d="M0 411L0 535L115 522Z" fill="#dcdcdc" stroke="#dcdcdc"></path><path d="M86 0L0 0L0 62Z" fill="#d8d8d8" stroke="#d8d8d8"></path><path d="M0 535L0 600L110 600Z" fill="#d9d9d9" stroke="#d9d9d9"></path></g></svg>